<?xml version="1.0" encoding="utf-8"?>
<svg xmlns="http://www.w3.org/2000/svg" xmlns:xlink="http://www.w3.org/1999/xlink" width="805.695" height="692.161" viewBox="0 0 805.695 692.161">
  <defs>
    <clipPath id="clip-path">
      <path id="Path_5080" data-name="Path 5080" d="M336.987,273.174l60.7-35.274q-1.427,8.145-5.529,26.4-4.14,18.253-18.205,70.712l-60.7,35.274q14.106-52.466,18.21-70.712T336.987,273.174Z" transform="translate(-313.253 -237.9)" fill="none"/>
    </clipPath>
    <clipPath id="clip-path-2">
      <path id="Path_5088" data-name="Path 5088" d="M367.376,287.436l60.7-35.274q27.941-16.238,80,13.818,53.441,30.861,80.9,80.34,27.45,49.5,27.265,114.563-.187,67.56-29.181,84.4l-60.7,35.274q28.987-16.845,29.181-84.409.187-65.06-27.265-114.558t-80.895-80.34Q395.338,271.213,367.376,287.436Z" transform="translate(-367.376 -246.469)" fill="none"/>
    </clipPath>
  </defs>
  <g id="Group_2729" data-name="Group 2729" transform="translate(-239.745 -188.707)">
    <path id="Path_5068" data-name="Path 5068" d="M297.65,447.482c-69.614,36.6-69.256,122.8-36.708,184.947,39.4,75.237,122.589,109.4,203.777,114.408C527.388,750.7,587.408,729.712,647,713.561c61.63-16.7,119.566-19.135,183.148-15.075,70.005,4.474,162.983-13.2,200.741-79.65,25.517-44.9,16.216-96.056-18.007-133.388-39.326-42.9-92.59-49.38-146.581-60.838-65.747-13.951-104.405-70.272-146.16-117.556C648.952,226.447,452.96,176.52,403.119,308.56c-9.826,26.034-13.568,53.858-27.248,78.479C358.355,418.572,328.1,431.472,297.65,447.482Z" transform="translate(0 126.78)" fill="#d9d1ff" opacity="0.36"/>
    <g id="Group_2683" data-name="Group 2683" transform="translate(286.258 188.707)" style="isolation: isolate">
      <g id="Group_2676" data-name="Group 2676" transform="translate(59.547 194.952)">
        <path id="Path_5069" data-name="Path 5069" d="M264.65,269.255l60.7-35.273-.274,96.54-60.7,35.272Z" transform="translate(-264.377 -233.983)" fill="#bfcbe2"/>
      </g>
      <g id="Group_2677" data-name="Group 2677" transform="translate(59.979 90.136)">
        <path id="Path_5070" data-name="Path 5070" d="M264.616,244.913l60.7-35.272-.139,49.059-60.7,35.272Z" transform="translate(-264.477 -209.64)" fill="#bfcbe2"/>
      </g>
      <g id="Group_2678" data-name="Group 2678" transform="translate(59.979 139.196)">
        <path id="Path_5071" data-name="Path 5071" d="M264.477,256.306l60.7-35.272,67.025,38.7L331.5,295Z" transform="translate(-264.477 -221.034)" fill="#d1f7ff"/>
      </g>
      <g id="Group_2679" data-name="Group 2679" transform="translate(126.846 177.892)">
        <path id="Path_5072" data-name="Path 5072" d="M280.164,265.293l60.7-35.273-.158,55.757-60.7,35.272Z" transform="translate(-280.006 -230.021)" fill="#d0daea"/>
      </g>
      <g id="Group_2680" data-name="Group 2680" transform="translate(132.806 76.346)">
        <path id="Path_5073" data-name="Path 5073" d="M281.549,241.71l60.7-35.272-.158,55.756-60.7,35.273Z" transform="translate(-281.39 -206.438)" fill="#d0daea"/>
      </g>
      <g id="Group_2681" data-name="Group 2681" transform="translate(0.729)">
        <path id="Path_5074" data-name="Path 5074" d="M250.717,223.98l60.7-35.273,132.236,76.346-60.7,35.272Z" transform="translate(-250.717 -188.707)" fill="#d0daef"/>
      </g>
      <g id="Group_2682" data-name="Group 2682" transform="translate(0 35.273)">
        <path id="Path_5075" data-name="Path 5075" d="M383.512,273.245,383.353,329l-72.688-41.967-.139,49.059,67.025,38.7-.158,55.756-67.025-38.7-.274,96.539-59.547-34.38.729-257.112Z" transform="translate(-250.547 -196.899)" fill="#7b8ec5"/>
      </g>
    </g>
    <g id="Group_2692" data-name="Group 2692" transform="translate(465.654 334.611)" style="isolation: isolate">
      <g id="Group_2684" data-name="Group 2684" transform="translate(66.419 212.757)">
        <path id="Path_5076" data-name="Path 5076" d="M319.1,307.275,379.794,272l-11.463,41.636-60.7,35.272Z" transform="translate(-307.635 -272.002)" fill="#bfcbe2"/>
      </g>
      <g id="Group_2685" data-name="Group 2685" transform="translate(90.608 163.022)">
        <path id="Path_5077" data-name="Path 5077" d="M313.253,295.725l60.7-35.273,47.588,27.475-60.7,35.273Z" transform="translate(-313.253 -260.452)" fill="#d1f7ff"/>
      </g>
      <g id="Group_2688" data-name="Group 2688" transform="translate(90.609 65.916)" style="isolation: isolate">
        <g id="Group_2687" data-name="Group 2687" clip-path="url(#clip-path)">
          <g id="Group_2686" data-name="Group 2686" style="isolation: isolate">
            <path id="Path_5078" data-name="Path 5078" d="M323.066,273.174l60.7-35.274q-1.427,8.145-5.529,26.4l-.073.327-60.7,35.274.077-.327q4.095-18.233,5.525-26.4" transform="translate(-299.332 -237.9)" fill="#bfcbe2"/>
            <path id="Path_5079" data-name="Path 5079" d="M331.385,279.38l60.7-35.274Q387.89,262.5,373.949,314.49l-60.7,35.274q13.983-52,18.132-70.384" transform="translate(-313.253 -217.384)" fill="#bfcbe2"/>
          </g>
        </g>
      </g>
      <g id="Group_2689" data-name="Group 2689" transform="translate(73.722)">
        <path id="Path_5081" data-name="Path 5081" d="M309.331,257.864l60.7-35.272,80.688,46.585-60.7,35.273Z" transform="translate(-309.331 -222.592)" fill="#d7e1f4"/>
      </g>
      <g id="Group_2690" data-name="Group 2690" transform="translate(154.41 46.585)">
        <path id="Path_5082" data-name="Path 5082" d="M328.07,268.684l60.7-35.273,73.194,300.867-60.7,35.273Z" transform="translate(-328.07 -233.411)" fill="#b8c6e8"/>
      </g>
      <g id="Group_2691" data-name="Group 2691" transform="translate(0 35.271)">
        <path id="Path_5083" data-name="Path 5083" d="M446.62,277.369l73.192,300.867-66.117-38.172-10.885-54.539-72.718-41.983-11.462,41.634L292.21,446.828l73.721-216.044Zm-63.8,116.44L430.4,421.281l-9.5-47.757q-3.346-16.031-8.091-41.156-4.76-25.106-6.261-35.666-1.427,8.145-5.525,26.4-4.147,18.253-18.21,70.712" transform="translate(-292.21 -230.783)" fill="#7b8ec5"/>
      </g>
    </g>
    <g id="Group_2698" data-name="Group 2698" transform="translate(759.815 437.424)" style="isolation: isolate">
      <g id="Group_2693" data-name="Group 2693" transform="translate(168.934 304.339)">
        <path id="Path_5084" data-name="Path 5084" d="M399.759,352.421l60.7-35.272L514.9,420.981l-60.7,35.272Z" transform="translate(-399.759 -317.148)" fill="#c1cee5"/>
      </g>
      <g id="Group_2694" data-name="Group 2694" transform="translate(63.671 72.107)">
        <path id="Path_5085" data-name="Path 5085" d="M508.233,423.3c-.043.013-.09.021-.133.034a17.2,17.2,0,0,1-2.764.685c-.189.034-.383.056-.573.082a20.46,20.46,0,0,1-2.941.2c-.1,0-.207-.009-.31-.013a25.08,25.08,0,0,1-3.285-.288c-.121-.017-.237-.039-.358-.056a33.561,33.561,0,0,1-3.492-.775l-.37-.1q-1.853-.53-3.811-1.292l-.271-.1q-2.015-.8-4.151-1.839l-.237-.112c-1.49-.736-3.023-1.55-4.6-2.459q-2.8-1.621-5.43-3.427l-.112-.082c-1.662-1.145-3.273-2.355-4.831-3.613-.133-.112-.271-.224-.4-.336q-2.357-1.925-4.547-4.018l-.026-.026q-2.241-2.144-4.3-4.478l-.133-.151c-1.326-1.494-2.588-3.057-3.806-4.663l-.327-.431c-1.033-1.382-2.006-2.82-2.962-4.28q-.639-.988-1.257-2c-.917-1.49-1.826-2.993-2.666-4.564l-.043-.082q-1.531-2.868-2.894-5.916l-.1-.22q-1.344-3.01-2.519-6.2c-.039-.112-.082-.22-.121-.332q-1.162-3.158-2.157-6.5l-.168-.568q-.93-3.171-1.722-6.493c-.073-.3-.138-.594-.207-.9q-.762-3.275-1.378-6.691c-.069-.375-.129-.758-.2-1.137-.409-2.372-.788-4.784-1.1-7.264l0-.03c-.3-2.385-.538-4.84-.749-7.324-.06-.723-.12-1.455-.172-2.187q-.213-2.913-.344-5.921c-.034-.779-.078-1.546-.108-2.334-.09-2.777-.146-5.6-.138-8.491,0-.383.013-.745.017-1.124.013-2.222.069-4.362.142-6.446.022-.568.043-1.145.069-1.705.095-2.1.211-4.142.37-6.1l.017-.189c.146-1.783.327-3.5.53-5.159.065-.555.142-1.089.215-1.628.146-1.1.3-2.17.474-3.212.09-.555.181-1.111.28-1.649.177-.956.362-1.882.556-2.79.108-.487.207-.982.314-1.455.232-.986.482-1.933.741-2.863.091-.323.172-.663.263-.977.366-1.236.754-2.411,1.163-3.535.09-.232.185-.448.276-.676.353-.926.724-1.813,1.115-2.652.146-.314.3-.611.448-.913.478-.973.982-1.895,1.516-2.756.121-.194.237-.409.358-.6.288-.444.594-.844.9-1.257.224-.306.439-.629.672-.917.327-.4.672-.766,1.012-1.141.228-.245.448-.512.68-.745.392-.388.8-.728,1.214-1.072.2-.172.4-.366.6-.525a17.987,17.987,0,0,1,1.951-1.318l0,0v0L391.2,298.489a17.528,17.528,0,0,0-1.946,1.313c-.215.164-.409.362-.62.538-.4.34-.814.68-1.2,1.064-.237.232-.452.5-.68.745-.34.37-.685.736-1.012,1.141-.232.288-.448.611-.672.917-.3.409-.607.814-.9,1.257-.039.06-.082.108-.121.172-.086.129-.155.293-.237.426-.53.861-1.038,1.783-1.516,2.751-.086.172-.185.31-.267.482-.064.138-.116.293-.181.431-.388.84-.758,1.727-1.111,2.644-.073.189-.159.357-.233.551l-.047.142c-.413,1.12-.8,2.3-1.163,3.531l-.043.134c-.078.263-.138.555-.215.822-.258.934-.512,1.89-.745,2.885-.035.142-.073.267-.1.413-.078.331-.138.7-.211,1.038-.194.909-.379,1.834-.556,2.795-.043.25-.1.478-.146.736-.052.288-.086.616-.133.909q-.258,1.569-.478,3.225c-.047.353-.108.676-.151,1.033-.026.181-.039.388-.06.573-.2,1.684-.388,3.415-.534,5.219l-.013.116v.017c-.159,1.959-.276,4.013-.37,6.114-.013.245-.034.469-.043.715-.013.31-.013.655-.026.965-.077,2.093-.125,4.237-.142,6.463,0,.215-.013.409-.017.624v.5q-.013,3.895.1,7.66c0,.276.026.542.034.822.03.8.077,1.567.112,2.355.056,1.287.1,2.592.177,3.854.043.693.112,1.361.164,2.049.052.736.112,1.468.172,2.2.056.624.09,1.27.151,1.895q.265,2.738.6,5.4v.009l.009.06q.31,2.441.68,4.814c.129.818.28,1.615.418,2.424.065.379.129.762.2,1.141.056.3.1.611.155.913q.394,2.073.831,4.1c.125.568.263,1.124.392,1.688.069.293.134.59.207.883.086.375.168.758.258,1.128.293,1.171.594,2.33.913,3.471.177.642.366,1.275.555,1.907.052.185.108.375.159.556.065.211.121.426.185.633q.446,1.453.921,2.876c.288.861.586,1.718.891,2.562.052.146.112.293.164.439l.121.319c.207.56.413,1.12.629,1.671q.42,1.085.861,2.144c.293.711.59,1.412.9,2.106.043.1.086.194.129.288l.095.207c.237.53.474,1.059.719,1.58q.484,1.027.986,2.037.581,1.169,1.2,2.317l.034.065.03.056c.543,1.012,1.1,2.011,1.675,2.988.31.525.65,1.016.964,1.533.413.672.831,1.339,1.257,1.994.258.392.491.805.749,1.188.586.865,1.188,1.714,1.8,2.549.138.185.28.366.413.547l.323.426c.31.4.616.818.93,1.219q.659.84,1.339,1.658c.456.547.913,1.085,1.382,1.615l.159.177.133.151q.581.659,1.176,1.3c.5.538,1,1.068,1.52,1.589q.788.807,1.61,1.593l.017.017.026.026q.879.84,1.783,1.658.93.833,1.89,1.641c.276.237.568.465.848.7l.413.336c.246.2.491.4.741.6q1.033.814,2.1,1.6.982.724,1.989,1.412l.112.082.095.065c.767.525,1.542,1.033,2.325,1.533.8.512,1.615,1.008,2.437,1.494.194.112.383.22.573.332.685.4,1.361.771,2.028,1.132.818.444,1.632.865,2.429,1.262l.142.065c.082.039.159.073.237.112.62.306,1.24.6,1.847.87q1.046.471,2.067.878c.082.034.159.06.241.09s.177.069.267.1c.482.185.965.375,1.438.543.624.22,1.24.418,1.847.6.176.052.349.095.521.146l.379.1c.288.078.586.168.87.241.586.146,1.158.271,1.727.383.3.06.594.1.891.146.121.022.237.043.358.06.146.022.3.056.448.073.573.077,1.137.138,1.7.176.388.026.762.03,1.141.039.1,0,.211.008.314.008.086,0,.181.013.267.013.616,0,1.214-.03,1.8-.086.3-.026.577-.082.866-.121.189-.026.383-.052.573-.082.172-.03.353-.043.525-.078l.164-.095h0l-.164.095a17.531,17.531,0,0,0,2.243-.607c.039-.013.086-.021.129-.034l.022-.008a16.623,16.623,0,0,0,2.825-1.3L511.079,422A16.71,16.71,0,0,1,508.233,423.3Z" transform="translate(-375.313 -263.215)" fill="#d1f7ff"/>
        <path id="Path_5086" data-name="Path 5086" d="M391.535,308.736h0Z" transform="translate(-321.685 -112.729)" fill="#d1f7ff"/>
      </g>
      <g id="Group_2696" data-name="Group 2696" transform="translate(29.497)" style="isolation: isolate">
        <g id="Group_2695" data-name="Group 2695" clip-path="url(#clip-path-2)">
          <path id="Path_5087" data-name="Path 5087" d="M616.1,451.125q-.142-4.779-.439-9.464-.278-4.334-.68-8.59-.381-4.017-.883-7.966-.478-3.759-1.059-7.458-.555-3.54-1.21-7.014-.627-3.346-1.348-6.64-.691-3.178-1.468-6.308-.743-3.01-1.567-5.972c-.521-1.89-1.072-3.763-1.641-5.628q-.814-2.648-1.688-5.266-.827-2.474-1.714-4.917-.84-2.319-1.731-4.612-.853-2.183-1.748-4.34-.872-2.106-1.8-4.185c-.616-1.4-1.253-2.794-1.9-4.181q-1.027-2.183-2.1-4.336-1.227-2.467-2.523-4.9c-.538-1.016-1.089-2.024-1.645-3.031q-1.1-1.97-2.231-3.914-3.345-5.729-7.053-11.2-2.3-3.4-4.736-6.691-1.77-2.4-3.608-4.732-1.673-2.119-3.4-4.194-1.7-2.035-3.449-4.035-1.8-2.047-3.66-4.056-1.964-2.112-3.987-4.172-2.158-2.2-4.388-4.341-2.37-2.267-4.818-4.478-2.571-2.312-5.227-4.556-2.771-2.338-5.641-4.6-2.958-2.332-6.024-4.59-3.158-2.319-6.433-4.564-3.4-2.325-6.924-4.569-3.688-2.344-7.509-4.594-.9-.53-1.809-1.055-2.939-1.692-5.8-3.242-3.481-1.886-6.846-3.548-3.165-1.57-6.239-2.941-2.913-1.311-5.74-2.441-2.706-1.085-5.331-2.007-2.544-.9-5.008-1.641-2.422-.736-4.762-1.318t-4.586-1.025q-2.267-.439-4.465-.741-2.248-.3-4.418-.456c-1.507-.1-2.992-.155-4.444-.151q-2.338.013-4.577.211a47.824,47.824,0,0,0-5.016.71,43.127,43.127,0,0,0-5.86,1.593,40.5,40.5,0,0,0-6.907,3.178l-60.7,35.274a39.836,39.836,0,0,1,6.907-3.178,42.512,42.512,0,0,1,5.86-1.593,48.024,48.024,0,0,1,5.016-.715q2.241-.2,4.577-.207c1.451,0,2.937.043,4.444.151q2.17.155,4.418.456,2.2.3,4.465.741,2.254.439,4.586,1.021t4.762,1.318q2.467.749,5.008,1.641,2.622.924,5.331,2.011,2.823,1.13,5.74,2.437,3.075,1.376,6.239,2.945,3.365,1.66,6.846,3.548,2.861,1.544,5.8,3.242.91.523,1.808,1.055,3.824,2.248,7.51,4.594,3.527,2.235,6.924,4.569,3.275,2.241,6.433,4.564,3.061,2.254,6.02,4.59,2.874,2.26,5.645,4.6,2.661,2.248,5.227,4.56,2.448,2.209,4.818,4.478,2.229,2.138,4.388,4.336,2.028,2.067,3.987,4.177,1.86,2.009,3.66,4.056,1.75,2,3.449,4.035,1.731,2.073,3.4,4.194,1.841,2.338,3.608,4.728,2.441,3.3,4.741,6.691,3.7,5.471,7.049,11.2,1.137,1.944,2.23,3.914c.556,1,1.107,2.015,1.645,3.031q1.3,2.429,2.523,4.9,1.072,2.151,2.1,4.336.975,2.08,1.9,4.177t1.791,4.19q.9,2.157,1.748,4.34.891,2.287,1.731,4.612.885,2.441,1.714,4.917.878,2.616,1.688,5.266.859,2.79,1.641,5.624.827,2.965,1.567,5.972.775,3.132,1.468,6.308.724,3.294,1.348,6.64.652,3.481,1.21,7.014.581,3.7,1.059,7.462.5,3.946.883,7.966.407,4.256.68,8.586.3,4.689.439,9.464.149,4.838.129,9.757v.642q-.026,5.412-.241,10.489-.2,4.824-.568,9.352-.355,4.353-.866,8.431-.5,3.972-1.137,7.682-.64,3.675-1.417,7.1-.788,3.455-1.722,6.653-.969,3.333-2.1,6.381-1.24,3.346-2.674,6.36a62.1,62.1,0,0,1-3.673,6.679A43.428,43.428,0,0,1,526.35,580.56l60.7-35.274a43.492,43.492,0,0,0,14.782-14.64,62.572,62.572,0,0,0,3.673-6.683q1.434-3.01,2.674-6.36,1.13-3.049,2.1-6.377.937-3.2,1.722-6.653.782-3.423,1.417-7.1.639-3.714,1.137-7.686.51-4.076.865-8.427.368-4.528.568-9.352.213-5.083.241-10.489v-.642Q616.24,455.954,616.1,451.125Z" transform="translate(-367.376 -246.469)" fill="#d0daef"/>
        </g>
      </g>
      <g id="Group_2697" data-name="Group 2697" transform="translate(0 35.274)">
        <path id="Path_5089" data-name="Path 5089" d="M529.461,559l54.448,103.833-75.3-43.472-39.343-79.991c-35.407-20.948-62.289-47.8-80.947-81.257q-27.986-50.14-27.79-115.049.181-64.207,28.212-81.928,28.012-17.717,81.278,13.038,53.441,30.854,80.895,80.34T578.177,469.07Q577.932,556.5,529.461,559Zm-26.219-76.615c7.428-7.832,11.2-24.483,11.268-50.073q.11-38.521-11.113-63.4-11.206-24.886-33.543-37.75-45.444-26.236-45.655,49.01-.213,74.587,44.928,100.646,22.974,13.26,34.116,1.567" transform="translate(-360.526 -254.661)" fill="#7b8ec5"/>
      </g>
    </g>
    <path id="Path_5090" data-name="Path 5090" d="M286.491,339.459c-11.26,4.513-24.384,11.884-23.773,25.909.336,7.639,6.5,8.009,12.866,8.259,22.606.891,51.46-1.774,70.6-14.89a41.588,41.588,0,0,0,13.068-14.593C377.909,308.543,298.711,334.563,286.491,339.459Z" transform="translate(75.877 452.884)" fill="#848b94" opacity="0.3" style="mix-blend-mode: multiply;isolation: isolate"/>
    <g id="Group_2705" data-name="Group 2705" transform="translate(783.629 260.397)">
      <g id="Group_2699" data-name="Group 2699" transform="translate(7.651 10.901)">
        <path id="Path_5091" data-name="Path 5091" d="M442.812,319.863l-7.6-6.114a195.568,195.568,0,0,1-52.73-65.549l-14.653-29.409,21.883-10.9L404.369,237.3a171.306,171.306,0,0,0,46.185,57.411l7.6,6.114Z" transform="translate(-367.833 -207.888)" fill="#3f5a9e"/>
      </g>
      <path id="Path_5092" data-name="Path 5092" d="M398.586,284.284s4.836,6.36,5.783,10.541-.723,6.282-.723,6.282-7.243,4.095-9.542,4.831-8.371,8.819-13.843,10.653-12.173,5.378-14.093,1.171,21.8-29.061,21.8-29.061Z" transform="translate(-366.056 55.571)" fill="#202c51"/>
      <path id="Path_5093" data-name="Path 5093" d="M401.76,282.718s-.542,4.879-4.878,4.607-8.125-4.879-8.125-4.879l1.085,17.336s2.437,26.008,10.02,28.716,9.21-11.647,9.21-11.647Z" transform="translate(-291.013 49.498)" fill="#202c51"/>
      <g id="Group_2700" data-name="Group 2700" transform="translate(70.81 212.909)">
        <path id="Path_5094" data-name="Path 5094" d="M415.29,387.548a13.939,13.939,0,0,0,12.1-20.832c-4.978-8.784-17.745-35.606-16.983-53.858.353-8.435,22.309-23.411,41.7-31.175A13.936,13.936,0,1,0,441.759,255.8c-9.658,3.862-57.9,24.716-59.2,55.891-1.232,29.517,18.369,64.873,20.608,68.808A13.933,13.933,0,0,0,415.29,387.548Z" transform="translate(-382.501 -254.802)" fill="#ef8054"/>
      </g>
      <g id="Group_2701" data-name="Group 2701" transform="translate(12.488 202.967)">
        <path id="Path_5095" data-name="Path 5095" d="M382.91,405.072a13.937,13.937,0,0,0,13.878-12.866c1.33-17.237,6.558-66.014,14.692-84.49,4.818-10.954,29.142-22.938,44.876-27.945,7.333-2.334,17.314-10.614,14.989-17.943s-16.061-10.963-23.4-8.633c-8.332,2.635-50.452,17.094-61.979,43.292-11.505,26.154-16.44,86.755-16.965,93.58a13.941,13.941,0,0,0,12.827,14.967Q382.368,405.072,382.91,405.072Z" transform="translate(-368.956 -252.493)" fill="#ef8054"/>
      </g>
      <g id="Group_2702" data-name="Group 2702" transform="translate(6.113)">
        <path id="Path_5096" data-name="Path 5096" d="M381.173,231.974a9.764,9.764,0,0,1-7.833-3.914c-4.4-5.86-6.717-10.2-5.576-15.019A10.188,10.188,0,0,1,373,206.388a9.783,9.783,0,0,1,14.011,7.109c.362.573.973,1.481,1.976,2.825a9.784,9.784,0,0,1-7.815,15.652Zm.594-8.1-.013.009Zm2.751-2.054a9.764,9.764,0,0,1-2.751,2.054A9.539,9.539,0,0,0,384.519,221.82Z" transform="translate(-367.476 -205.356)" fill="#efc5b6"/>
      </g>
      <path id="Path_5097" data-name="Path 5097" d="M384.67,260.2c.486,3.707,6.325,76.421,6.325,76.421s40.691,31.933,60.649,21.951c14.416-7.208,15.583-15.364,15.118-19.333a48.547,48.547,0,0,1-.439-7.238l-9-63.994c-1.9-13.521-18.511-34.012-32.527-37.664C377.859,218.109,384.016,255.165,384.67,260.2Z" transform="translate(-306.545 -130.899)" fill="#4661b3"/>
      <path id="Path_5098" data-name="Path 5098" d="M384.377,250.758a26.461,26.461,0,1,0,16.388-33.642A26.46,26.46,0,0,0,384.377,250.758Z" transform="translate(-310.29 -171.286)" fill="#efc5b6"/>
      <path id="Path_5099" data-name="Path 5099" d="M387.731,224.952l6.722,20.483,1.473,4.427a9.879,9.879,0,0,0,7.367,6.7c4.048.766,8.435-.28,12.423-2.424h0a4.18,4.18,0,0,0,2.071-4.711l-6.713-26.417Z" transform="translate(-294.401 -146.995)" fill="#efc5b6"/>
      <g id="Group_2703" data-name="Group 2703" transform="translate(107.872 111.168)">
        <path id="Path_5100" data-name="Path 5100" d="M400.877,347.162a9.781,9.781,0,0,1-1.86-19.381c17.581-3.462,40.247-16.629,41.169-26.774,1.154-12.677-17.762-37.517-33.117-53.208a9.782,9.782,0,0,1,13.973-13.693,264.438,264.438,0,0,1,20.668,24.354c14.662,19.661,21.254,35.132,20.147,47.283-1.218,13.4-12.1,24.5-32.35,32.992a152.537,152.537,0,0,1-26.744,8.242A9.723,9.723,0,0,1,400.877,347.162Z" transform="translate(-391.108 -231.174)" fill="#3f5a9e"/>
      </g>
      <path id="Path_5101" data-name="Path 5101" d="M393.2,231.017a8.469,8.469,0,1,0,5.245-10.765A8.469,8.469,0,0,0,393.2,231.017Z" transform="translate(-277.859 -157.655)" fill="#efc5b6"/>
      <path id="Path_5102" data-name="Path 5102" d="M394.562,238.4a29.022,29.022,0,0,0,5.417,1.5,32.026,32.026,0,0,0,10.769.5c3.574-.538,10.369-1.128,12.879-3.725a42.726,42.726,0,0,0,4.452.676,17.589,17.589,0,0,0-1,3.682c-.482,3.04.68,6.076,1.821,8.935.827,2.08,5.443.06,5.15-1.873a13.937,13.937,0,0,1-.2-4.052,4.675,4.675,0,0,1,2.024-3.384,6.092,6.092,0,0,0,1.266-.779,3.2,3.2,0,0,0,.667-1.3c1.21-3.66,5.055-7.393,3.634-10.98-1.994-5.029-3.268-6.011-7.355-7.819s-5.193-2.342-9.486-1.111c-4.263-2.747-15.445-6.119-20.044-3.974-1.313.611-2.429,1.585-3.712,2.256a13.773,13.773,0,0,1-9.46,1.851c-3.88-.4-8.319.943-9.4,5.654C380.692,230.094,388.551,235.976,394.562,238.4Z" transform="translate(-313.866 -176.755)" fill="#202c51"/>
      <g id="Group_2704" data-name="Group 2704" transform="translate(107.872 204.359)">
        <path id="Path_5103" data-name="Path 5103" d="M400.877,275.614a9.781,9.781,0,0,1-1.86-19.381c.039-.009,4.943-.982,11.493-2.988a9.782,9.782,0,0,1,5.718,18.709c-7.583,2.317-13.228,3.428-13.464,3.475A9.725,9.725,0,0,1,400.877,275.614Z" transform="translate(-391.108 -252.816)" fill="#efc5b6"/>
      </g>
    </g>
    <path id="Path_5104" data-name="Path 5104" d="M363.871,264.541l34.5-4.109L317.032,228.6l10.951,53.626,22.041-12.892,8.415,10.391Z" transform="translate(255.504 131.867)" fill="#e6e6e6" style="mix-blend-mode: multiply;isolation: isolate"/>
    <g id="Group_2706" data-name="Group 2706" transform="translate(573.841 229.276)">
      <path id="Path_5105" data-name="Path 5105" d="M317.335,198.129l115.831,45.336-49.942,5.949Z" transform="translate(-317.335 -198.129)" fill="#fff"/>
      <path id="Path_5106" data-name="Path 5106" d="M384.034,249.317,376.3,270.932l-58.967-72.8Z" transform="translate(-317.335 -198.129)" fill="#adddfd"/>
      <path id="Path_5107" data-name="Path 5107" d="M367.471,254.289l8.831,16.643-58.967-72.8Z" transform="translate(-317.335 -198.129)" fill="#80c1fb"/>
      <path id="Path_5108" data-name="Path 5108" d="M317.335,198.129l15.594,76.366,34.542-20.206Z" transform="translate(-317.335 -198.129)" fill="#fff"/>
    </g>
    <g id="Group_2724" data-name="Group 2724" transform="translate(281.61 424.347)">
      <path id="Path_5109" data-name="Path 5109" d="M299.05,281.572c10.67,6.157,10.614,16.177-.12,22.373s-28.087,6.231-38.757.073-10.614-16.177.121-22.378S288.38,275.41,299.05,281.572Z" transform="translate(-240.416 -132.552)" fill="#848b94" opacity="0.7" style="mix-blend-mode: multiply;isolation: isolate"/>
      <path id="Path_5110" data-name="Path 5110" d="M304.274,315.889V271.323H249.468l0,44.588c-.043,4.065,2.605,8.13,7.962,11.221,10.67,6.162,28.019,6.132,38.753-.069,5.348-3.087,8.043-7.118,8.087-11.152h0Z" transform="translate(-249.467 -151.227)" fill="#fff"/>
      <path id="Path_5111" data-name="Path 5111" d="M276.41,271.338H257.873V330.85a34.654,34.654,0,0,0,10.451-3.772c5.348-3.087,8.039-7.122,8.082-11.152h0V271.338Z" transform="translate(-221.681 -151.177)" fill="#e5f0ff"/>
      <path id="Path_5112" data-name="Path 5112" d="M296.312,271.695c11.006,5.529,10.614,16.177-.125,22.373s-28.083,6.231-38.753.073-10.614-16.182.121-22.378S288.054,267.544,296.312,271.695Z" transform="translate(-249.468 -162.819)" fill="#5b3a89"/>
      <path id="Path_5113" data-name="Path 5113" d="M295.714,273.959c-10.67-6.162-28.023-6.131-38.757.069-3.75,2.166-6.166,4.8-7.307,7.57,1.128,2.73,3.5,5.322,7.186,7.449,10.67,6.157,28.019,6.127,38.753-.073,3.75-2.166,6.166-4.8,7.311-7.57C301.772,278.674,299.4,276.086,295.714,273.959Z" transform="translate(-248.869 -157.725)" fill="#261d36"/>
      <path id="Path_5114" data-name="Path 5114" d="M296.312,268.717c10.666,6.157,10.614,16.177-.125,22.373s-28.083,6.231-38.753.073-10.614-16.182.121-22.378" transform="translate(-249.468 -159.842)" fill="none" stroke="#fc6591" stroke-miterlimit="10" stroke-width="3"/>
      <g id="Group_2723" data-name="Group 2723" transform="translate(10.311)">
        <g id="Group_2707" data-name="Group 2707" transform="translate(15.7 18.607)">
          <path id="Path_5115" data-name="Path 5115" d="M257.876,357.652l-1.262.017-1.105-109.9,1.262-.017Z" transform="translate(-255.509 -247.753)" fill="#65fcef"/>
        </g>
        <g id="Group_2708" data-name="Group 2708" transform="translate(11.949)">
          <path id="Path_5116" data-name="Path 5116" d="M263.1,250.89c.078,5.835-4.043,13.68-4.043,13.68s-4.332-7.729-4.414-13.568,1.791-7.54,4.129-7.57S263.019,245.051,263.1,250.89Z" transform="translate(-254.637 -243.432)" fill="#65fcef"/>
        </g>
        <g id="Group_2709" data-name="Group 2709" transform="translate(0 13.608)">
          <path id="Path_5117" data-name="Path 5117" d="M261.238,249.791c4.276,3.979,7.1,12.38,7.1,12.38s-8.582-2.213-12.853-6.188-4.211-6.506-2.622-8.216S256.967,245.812,261.238,249.791Z" transform="translate(-251.863 -246.592)" fill="#65fcef"/>
        </g>
        <g id="Group_2710" data-name="Group 2710" transform="translate(16.472 13.262)">
          <path id="Path_5118" data-name="Path 5118" d="M262.448,249.871c-4.164,4.091-6.76,12.565-6.76,12.565s8.521-2.441,12.685-6.536,4.035-6.614,2.4-8.28S266.612,245.776,262.448,249.871Z" transform="translate(-255.688 -246.512)" fill="#65fcef"/>
        </g>
        <g id="Group_2711" data-name="Group 2711" transform="translate(0.192 27.852)">
          <path id="Path_5119" data-name="Path 5119" d="M261.285,253.1c4.276,3.974,7.1,12.38,7.1,12.38s-8.582-2.213-12.857-6.192-4.211-6.5-2.618-8.211S257.014,249.12,261.285,253.1Z" transform="translate(-251.907 -249.9)" fill="#65fcef"/>
        </g>
        <g id="Group_2712" data-name="Group 2712" transform="translate(16.666 27.506)">
          <path id="Path_5120" data-name="Path 5120" d="M262.489,253.175c-4.164,4.091-6.756,12.569-6.756,12.569s8.521-2.446,12.685-6.536,4.03-6.614,2.394-8.28S266.657,249.084,262.489,253.175Z" transform="translate(-255.733 -249.82)" fill="#65fcef"/>
        </g>
        <g id="Group_2713" data-name="Group 2713" transform="translate(0.405 43.6)">
          <path id="Path_5121" data-name="Path 5121" d="M261.337,256.755c4.271,3.979,7.1,12.379,7.1,12.379s-8.586-2.213-12.857-6.187-4.211-6.506-2.622-8.216S257.061,252.78,261.337,256.755Z" transform="translate(-251.957 -253.558)" fill="#65fcef"/>
        </g>
        <g id="Group_2714" data-name="Group 2714" transform="translate(16.881 43.254)">
          <path id="Path_5122" data-name="Path 5122" d="M262.539,256.835c-4.164,4.091-6.756,12.565-6.756,12.565s8.517-2.441,12.681-6.532,4.035-6.618,2.4-8.285S266.7,252.744,262.539,256.835Z" transform="translate(-255.783 -253.477)" fill="#65fcef"/>
        </g>
        <g id="Group_2715" data-name="Group 2715" transform="translate(0.618 59.35)">
          <path id="Path_5123" data-name="Path 5123" d="M261.384,260.414c4.276,3.974,7.1,12.379,7.1,12.379s-8.582-2.213-12.857-6.192-4.211-6.5-2.618-8.211S257.113,256.435,261.384,260.414Z" transform="translate(-252.006 -257.215)" fill="#65fcef"/>
        </g>
        <g id="Group_2716" data-name="Group 2716" transform="translate(17.092 59.004)">
          <path id="Path_5124" data-name="Path 5124" d="M262.588,260.49c-4.164,4.091-6.756,12.569-6.756,12.569s8.521-2.446,12.685-6.536,4.03-6.614,2.394-8.28S266.756,256.4,262.588,260.49Z" transform="translate(-255.832 -257.135)" fill="#65fcef"/>
        </g>
        <g id="Group_2717" data-name="Group 2717" transform="translate(0.831 75.097)">
          <path id="Path_5125" data-name="Path 5125" d="M261.436,264.07c4.271,3.979,7.092,12.379,7.092,12.379s-8.582-2.209-12.853-6.187-4.211-6.506-2.622-8.216S257.16,260.1,261.436,264.07Z" transform="translate(-252.056 -260.872)" fill="#65fcef"/>
        </g>
        <g id="Group_2718" data-name="Group 2718" transform="translate(17.303 74.752)">
          <path id="Path_5126" data-name="Path 5126" d="M262.641,264.15c-4.164,4.091-6.76,12.565-6.76,12.565s8.521-2.441,12.685-6.532,4.035-6.618,2.4-8.284S266.805,260.059,262.641,264.15Z" transform="translate(-255.881 -260.792)" fill="#65fcef"/>
        </g>
        <g id="Group_2719" data-name="Group 2719" transform="translate(0.618 88.974)">
          <path id="Path_5127" data-name="Path 5127" d="M261.384,267.294c4.276,3.979,7.1,12.379,7.1,12.379s-8.582-2.213-12.857-6.188-4.211-6.506-2.618-8.216S257.113,263.315,261.384,267.294Z" transform="translate(-252.006 -264.095)" fill="#65fcef"/>
        </g>
        <g id="Group_2720" data-name="Group 2720" transform="translate(17.092 88.629)">
          <path id="Path_5128" data-name="Path 5128" d="M262.588,267.374c-4.164,4.091-6.756,12.565-6.756,12.565s8.521-2.442,12.685-6.536,4.03-6.614,2.394-8.28S266.756,263.279,262.588,267.374Z" transform="translate(-255.832 -264.015)" fill="#65fcef"/>
        </g>
        <g id="Group_2721" data-name="Group 2721" transform="translate(0.831 104.725)">
          <path id="Path_5129" data-name="Path 5129" d="M261.436,270.952c4.271,3.974,7.092,12.375,7.092,12.375s-8.582-2.209-12.853-6.187-4.211-6.5-2.622-8.211S257.16,266.973,261.436,270.952Z" transform="translate(-252.056 -267.753)" fill="#65fcef"/>
        </g>
        <g id="Group_2722" data-name="Group 2722" transform="translate(17.303 104.379)">
          <path id="Path_5130" data-name="Path 5130" d="M262.641,271.028c-4.164,4.091-6.76,12.565-6.76,12.565s8.521-2.441,12.685-6.532,4.035-6.618,2.4-8.28S266.805,266.937,262.641,271.028Z" transform="translate(-255.881 -267.673)" fill="#65fcef"/>
        </g>
      </g>
    </g>
    <g id="Group_2728" data-name="Group 2728" transform="translate(357.601 428.419)">
      <path id="Path_5131" data-name="Path 5131" d="M283.038,322.482s-3.966,9.482-3.794,15,2.932,7.587,2.932,7.587,10.343,2.76,13.447,2.932,13.275,8.276,20.69,8.793,16.9,2.76,17.93-3.1-36.553-29.138-36.553-29.138Z" transform="translate(-227.039 13.828)" fill="#3f5a9e"/>
      <path id="Path_5132" data-name="Path 5132" d="M277.115,323.957s.586,5.262,5.262,4.969,8.776-5.262,8.776-5.262l-1.171,18.713s-2.631,28.07-10.821,31-9.942-12.578-9.942-12.578Z" transform="translate(-260.167 17.736)" fill="#3f5a9e"/>
      <path id="Path_5133" data-name="Path 5133" d="M348.185,279.543l1.43,50.926-67.168,26.464-.456-30.318S269,312.479,273.228,311.407s61.643-39.352,61.643-39.352Z" transform="translate(-249.704 -152.879)" fill="#2c3e74"/>
      <g id="Group_2725" data-name="Group 2725" transform="translate(50.325 134.26)">
        <path id="Path_5134" data-name="Path 5134" d="M292.852,481.716a14.055,14.055,0,0,1-13.671-17.262l20.444-86.682.814-88.306a14.039,14.039,0,0,1,14.033-13.908h.134a14.04,14.04,0,0,1,13.908,14.166l-.831,89.873a14.114,14.114,0,0,1-.375,3.092L306.5,470.9A14.042,14.042,0,0,1,292.852,481.716Z" transform="translate(-278.803 -275.558)" fill="#2c3e74"/>
      </g>
      <g id="Group_2726" data-name="Group 2726" transform="translate(10.381 151.735)">
        <path id="Path_5135" data-name="Path 5135" d="M283.578,478.285a14.206,14.206,0,0,1-2.894-.3,14.037,14.037,0,0,1-10.855-16.621L283.841,394.6,295.415,292.08a14.036,14.036,0,0,1,27.894,3.152L311.661,398.415c-.052.439-.121.874-.211,1.309l-14.149,67.4A14.04,14.04,0,0,1,283.578,478.285Z" transform="translate(-269.527 -279.616)" fill="#2c3e74"/>
      </g>
      <path id="Path_5136" data-name="Path 5136" d="M293.929,256.142l7.832,8.8s23.252,69.928,22.623,76.227-7.346,10.588-12.38,8.7-23.114-46.508-23.114-46.508Z" transform="translate(-195.129 -205.486)" fill="#f26727"/>
      <path id="Path_5137" data-name="Path 5137" d="M304.561,261.425s25.68-8.276,36.2-5.645,14.037,9.65,14.916,13.159-3.509,88.6-3.509,88.6-45.617,37.724-64.916,28.075c-13.942-6.971-15.066-14.855-14.618-18.7a46.49,46.49,0,0,0,.426-7l11.557-82.208Z" transform="translate(-249.114 -208.391)" fill="#ed8056"/>
      <path id="Path_5138" data-name="Path 5138" d="M330.138,278.306a25.584,25.584,0,1,1-15.846-32.523A25.586,25.586,0,0,1,330.138,278.306Z" transform="translate(-223.334 -244.378)" fill="#efc5b6"/>
      <path id="Path_5139" data-name="Path 5139" d="M310.006,253.359,301.3,279.673h0a16.416,16.416,0,0,1-18.347,1.9h0a4.047,4.047,0,0,1-2-4.556l6.493-25.538Z" transform="translate(-221.808 -220.891)" fill="#efc5b6"/>
      <path id="Path_5140" data-name="Path 5140" d="M327.141,271.089a6.4,6.4,0,0,0,3.824-1.02.916.916,0,0,0,.129-.129,25.541,25.541,0,0,0-50.607-5.064,8.7,8.7,0,0,0,3.29,1.025c2.609.232,11.2-3.337,11.587-1.6a6.2,6.2,0,0,0,3.755-4.551A37.9,37.9,0,0,0,327.141,271.089Z" transform="translate(-222.916 -244.378)" fill="#6957bb"/>
      <path id="Path_5141" data-name="Path 5141" d="M306.236,298.559h0a12.763,12.763,0,0,1-12.724-12.724h0a12.762,12.762,0,0,1,12.724-12.72h0a12.761,12.761,0,0,1,12.72,12.72h0A12.762,12.762,0,0,1,306.236,298.559Z" transform="translate(-179.853 -149.375)" fill="#f26727"/>
      <path id="Path_5142" data-name="Path 5142" d="M294.661,257.326a7.789,7.789,0,1,1-4.823-9.9A7.79,7.79,0,0,1,294.661,257.326Z" transform="translate(-226.149 -235.726)" fill="#efc5b6"/>
      <path id="Path_5143" data-name="Path 5143" d="M316.9,283.047a9.451,9.451,0,1,1-9.451-9.452A9.453,9.453,0,0,1,316.9,283.047Z" transform="translate(-165.029 -147.788)" fill="#efc5b6"/>
      <path id="Path_5144" data-name="Path 5144" d="M304.126,307.973s24.578-48.648,18.438-51.279c0,0-21.693,4.883-26.081,14.532s-30.637,72.163-29.319,80.495,9.361,11.269,30.86,16.935a260.643,260.643,0,0,0,36.415,6.976l.8-9.215-39.929-23.863Z" transform="translate(-267.116 -203.661)" fill="#f26727"/>
      <path id="Path_5145" data-name="Path 5145" d="M354.531,275.291l-47.4,3.781s-16.014,9.486-15.419,16.6,14.235,7.118,14.235,7.118l26.094,16.6Z" transform="translate(-185.842 -142.181)" fill="#ebefff"/>
      <path id="Path_5146" data-name="Path 5146" d="M307.857,280.025l18.843,1.653a35.964,35.964,0,0,1,24.544,12.875l7.617,9.193L283.589,295.3S289.665,280.675,307.857,280.025Z" transform="translate(-212.657 -126.531)" fill="#fff"/>
      <path id="Path_5147" data-name="Path 5147" d="M325.788,310.706s3.488-15.165,7.72-21.689c6.459-9.96,12.3-13.641,19.127-13.641L307.8,278.791s-20.759,7.113-15.419,16.6,14.235,7.118,14.235,7.118Z" transform="translate(-186.504 -141.9)" fill="#fff"/>
      <g id="Group_2727" data-name="Group 2727" transform="translate(59.959 129.2)">
        <path id="Path_5148" data-name="Path 5148" d="M368.245,324.271l-85.64-9.378a1.756,1.756,0,0,1,.383-3.492l83.336,9.129,25.525-45.251a1.756,1.756,0,1,1,3.057,1.727Z" transform="translate(-281.041 -274.383)" fill="#f27281"/>
      </g>
      <path id="Path_5149" data-name="Path 5149" d="M298.432,289.991a9.449,9.449,0,1,1-9.447-9.452A9.446,9.446,0,0,1,298.432,289.991Z" transform="translate(-226.066 -124.831)" fill="#efc5b6"/>
      <path id="Path_5150" data-name="Path 5150" d="M342.247,295.143s2.648-8.461-21.964-12.263c-24.221-3.742-31.958,6.579-31.958,6.579Z" transform="translate(-197.004 -119.796)" fill="#ebefff"/>
      <path id="Path_5151" data-name="Path 5151" d="M301.776,319.985l-28.112-16.8,8.815-34.58" transform="translate(-245.467 -164.291)" fill="none" stroke="#c7c0e5" stroke-linecap="round" stroke-linejoin="round" stroke-width="0.25"/>
    </g>
  </g>
</svg>
